<?xml version="1.0" encoding="utf-8"?>
<!-- Generator: Adobe Illustrator 23.0.0, SVG Export Plug-In . SVG Version: 6.00 Build 0)  -->
<svg version="1.1" id="图层_1" xmlns="http://www.w3.org/2000/svg" xmlns:xlink="http://www.w3.org/1999/xlink" x="0px" y="0px"
	 viewBox="0 0 200 200" style="enable-background:new 0 0 200 200;" xml:space="preserve">
<style type="text/css">
	.st0{fill:#C30D23;}
</style>
<g>
	<g>
		<path class="st0" d="M128.5,190.3c-2.8,0-5.8-1.1-7.8-3c-3.1-2.8-13.3-10.7-20.6-10.7c-7.4,0-17.6,8-20.6,10.7
			c-3.1,3-8.3,3.8-12.1,2.1l-0.6-0.3L37,171.9c-3.5-2.5-5.2-7.4-4.2-11.5c0.9-4.1,2.7-16.9-1-23.2c-3.7-6.3-15.7-11.3-19.6-12.5
			c-3.9-1.2-7.3-5.1-8-9.1c-0.1-0.4-1.8-10.4-1.8-17.9c0-7.4,1.7-17.3,1.8-17.9c0.7-4.1,4.1-7.9,8-9.1c3.9-1.2,16-6.1,19.6-12.5
			c3.7-6.4,1.8-19.3,1-23.2c-1-4.1,0.8-9,4.2-11.5l0.6-0.4l29.5-17c3.9-1.8,9.1-0.9,12.1,2.1c3.1,2.8,13.3,10.7,20.6,10.7
			c7.4,0,17.6-8,20.6-10.7c3.1-3,8.3-3.8,12.1-2.1l0.6,0.3l29.7,17.2c3.5,2.5,5.2,7.4,4.2,11.5c-0.9,4.1-2.7,16.9,1,23.2
			c3.7,6.3,15.7,11.3,19.6,12.5c3.9,1.2,7.3,5.1,8,9.1c0.1,0.4,1.8,10.4,1.8,17.9c0,7.4-1.7,17.3-1.8,17.9c-0.7,4.1-4.1,7.9-8,9.1
			c-3.9,1.2-16,6.1-19.6,12.5c-3.7,6.4-1.8,19.3-1,23.2c1,4.1-0.8,9-4.2,11.5l-0.6,0.4l-29.7,17.2
			C131.4,190.1,130,190.3,128.5,190.3L128.5,190.3z M44.6,162.5l27,15.7c3-2.7,15.9-13.6,28.4-13.6s25.5,11,28.4,13.6l27-15.7
			c-0.8-3.8-3.8-20.5,2.5-31.4c6.4-11.1,23.2-16.9,26.2-17.9c0.3-1.7,1.6-9.7,1.6-15.5s-1.3-13.9-1.6-15.5
			c-3.1-1-19.8-6.7-26.2-17.9c-6.2-10.8-3.2-27.5-2.5-31.4l-27-15.7c-3,2.7-15.9,13.6-28.4,13.6s-25.5-11-28.4-13.6l-27,15.6
			c0.8,3.8,3.8,20.5-2.5,31.4C35.7,75.4,19,81.1,15.9,82.1c-0.3,1.7-1.6,9.7-1.6,15.5c0,5.8,1.3,13.9,1.6,15.5
			c3.1,1,19.8,6.7,26.2,17.9C48.3,141.9,45.3,158.5,44.6,162.5L44.6,162.5z"/>
		<path class="st0" d="M128.5,191.1c-3.1,0-6.2-1.2-8.3-3.2c-3.3-2.9-13.2-10.5-20.1-10.5c-7.1,0-17.2,7.8-20.1,10.5
			c-3.3,3.1-8.7,4.1-13,2.2l-0.6-0.3l-29.7-17.2c-3.8-2.7-5.6-7.9-4.6-12.4c0.9-3.9,2.6-16.5-0.9-22.7c-3.7-6.3-16.1-11.2-19.2-12.2
			c-4.1-1.2-7.8-5.4-8.5-9.7c0-0.1-1.8-10.3-1.8-18C1.6,93.3,2.2,87,3.3,80l0-0.3c0.7-4.4,4.3-8.4,8.5-9.7
			c4.6-1.4,15.8-6.3,19.2-12.2c3.3-5.8,2-17.4,0.9-22.7c-1.1-4.4,0.8-9.6,4.5-12.3l0.7-0.4l29.5-17c4.3-1.9,9.8-1,13,2.2
			c3.2,2.9,13.2,10.5,20.1,10.5c7.1,0,17.2-7.8,20.1-10.5c3.3-3.1,8.7-4.1,13-2.2l0.6,0.3l29.7,17.2c3.8,2.7,5.6,7.9,4.6,12.4
			c-0.9,3.9-2.6,16.5,0.9,22.7c3.4,5.8,14.4,10.7,19.2,12.2c4.1,1.2,7.8,5.4,8.5,9.7c0,0.1,1.8,10.3,1.8,18c0,4.4-0.6,10.7-1.7,17.7
			l0,0.3c-0.7,4.4-4.3,8.4-8.5,9.7c-4.6,1.3-15.8,6.3-19.2,12.2c-3.3,5.8-2,17.4-0.9,22.7c1.1,4.4-0.8,9.6-4.5,12.3l-0.7,0.4
			L133,190.2C131.4,190.9,129.7,191.1,128.5,191.1z M100,175.8c8.9,0,21,10.8,21.2,10.9c1.9,1.8,4.6,2.8,7.3,2.8
			c1.5,0,2.8-0.2,3.7-0.7l30.2-17.5c3.2-2.3,4.8-6.8,3.9-10.7c-1.2-5.5-2.5-17.6,1.1-23.8c4-7,16.9-11.9,20.1-12.9
			c3.6-1.1,6.8-4.7,7.4-8.4l0-0.3c1.1-6.9,1.7-13.1,1.7-17.5c0-7.6-1.7-17.6-1.8-17.7c-0.7-3.8-3.9-7.4-7.4-8.5
			c-4-1.2-16.2-6.2-20.1-12.9c-3.8-6.6-2.1-19.4-1.1-23.8c0.9-3.9-0.7-8.4-3.9-10.7L132.8,7.1l-0.6-0.3c-3.6-1.6-8.4-0.8-11.3,1.9
			c-3.1,2.8-13.6,11-21.2,11c-8.9,0-21-10.8-21.2-10.9C75.8,6,71,5.2,67.4,6.8l-30,17.4c-3.2,2.3-4.8,6.8-3.9,10.7
			c1.2,5.5,2.5,17.6-1.1,23.8c-4,7-16.9,11.9-20.1,12.9c-3.6,1.1-6.8,4.7-7.4,8.4l0,0.3c-1.1,6.9-1.7,13.1-1.7,17.5
			c0,7.6,1.7,17.6,1.8,17.7c0.7,3.8,3.9,7.4,7.4,8.5c4,1.2,16.2,6.2,20.1,12.9c3.8,6.6,2.1,19.4,1.1,23.8c-0.9,3.9,0.7,8.4,3.9,10.7
			l29.6,17.1l0.6,0.3c3.6,1.6,8.4,0.8,11.3-1.9C82,183.9,92.5,175.8,100,175.8z M71.7,179.1l-28-16.2l0.1-0.5c1.2-6,3.3-21-2.4-30.9
			c-6-10.4-21.3-16.1-25.8-17.5l-0.4-0.1l-0.1-0.4c-0.3-1.4-1.6-9.8-1.6-15.6c0-6.5,1.6-15.5,1.6-15.6l0.1-0.5l0.4-0.1
			c3.2-1,19.6-6.8,25.8-17.5C47.2,54,45,39,43.8,33l-0.1-0.5l28-16.1l0.4,0.4C74.6,19,87.7,30.1,100,30.1
			c12.3,0,25.4-11.1,27.9-13.4l0.4-0.4l28,16.2l-0.1,0.5c-0.9,4.7-3.5,20.6,2.4,30.8c6,10.4,21.3,16.1,25.8,17.5l0.4,0.1l0.1,0.4
			c0.3,1.7,1.6,9.8,1.6,15.6c0,6.5-1.6,15.5-1.6,15.6l-0.1,0.4l-0.4,0.1c-4.6,1.5-19.9,7.3-25.8,17.5c-5.7,9.9-3.6,24.9-2.4,30.8
			l0.1,0.5l-28,16.2l-0.4-0.4c-2.5-2.2-15.6-13.4-27.9-13.4c-12.3,0-25.4,11.1-27.9,13.4L71.7,179.1z M100,163.8
			c12.1,0,24.4,9.8,28.5,13.4l26.1-15.1c-1.2-6.5-3.2-21.3,2.6-31.4c5.9-10.2,20-15.9,26.2-18.1c0.5-2.7,1.5-9.9,1.5-14.9
			c0-5.3-1.1-12.7-1.5-14.9c-5.1-1.7-20.1-7.5-26.2-18.1c-5.9-10.3-3.7-26-2.6-31.4l-26.1-15.1c-4.1,3.6-16.4,13.4-28.5,13.4
			c-12.1,0-24.4-9.8-28.5-13.4l-26.1,15c1.2,6.5,3.2,21.3-2.6,31.4C36.6,75.2,21.7,81,16.6,82.7c-0.5,2.7-1.5,9.9-1.5,14.9
			c0,5.3,1.1,12.7,1.5,14.9c5.1,1.7,20.1,7.5,26.2,18.1c5.8,10.1,3.9,25,2.6,31.4l26.1,15.1C75.6,173.6,87.8,163.8,100,163.8z"/>
	</g>
	<path class="st0" d="M100,138.8c-22.7,0-41-18.4-41-41.1S77.3,56.5,100,56.5s41,18.4,41,41.1S122.7,138.8,100,138.8L100,138.8z
		 M100,68.6c-16,0-29,13-29,29s13,29,29,29s29-13,29-29C129,81.7,115.9,68.6,100,68.6L100,68.6z"/>
</g>
</svg>
