<?xml version="1.0" encoding="utf-8"?>
<!-- Generator: Adobe Illustrator 23.0.0, SVG Export Plug-In . SVG Version: 6.00 Build 0)  -->
<svg version="1.1" id="图层_1" xmlns="http://www.w3.org/2000/svg" xmlns:xlink="http://www.w3.org/1999/xlink" x="0px" y="0px"
	 viewBox="0 0 200 200" style="enable-background:new 0 0 200 200;" xml:space="preserve">
<style type="text/css">
	.st0{fill:#C30D23;}
</style>
<path class="st0" d="M162.2,194.9H35.6c-14.4,0-26.3-11.1-26.3-25V31.7c0-13.8,11.8-24.9,26.3-24.9h22.5v10.4H35.6
	c-8.8,0-15.9,6.5-15.9,14.6v138.3c0,8,7.1,14.6,15.9,14.6h126.6c8.8,0,15.9-6.5,15.9-14.6V31.7c0-8-7.1-14.6-15.9-14.6h-21V6.8h21
	c14.4,0,26.3,11.1,26.3,24.9V170C188.5,183.7,176.7,194.9,162.2,194.9L162.2,194.9z"/>
<path class="st0" d="M162.2,196.8H35.6c-15.5,0-28.2-12.1-28.2-26.9V31.7C7.4,16.9,20,4.9,35.6,4.9H60V19H35.6
	c-7.7,0-14,5.7-14,12.7V170c0,7,6.3,12.7,14,12.7h126.6c7.7,0,14-5.7,14-12.7V31.7c0-7-6.3-12.7-14-12.7h-22.8V4.9h22.8
	c15.5,0,28.2,12,28.2,26.8V170C190.4,184.7,177.8,196.8,162.2,196.8z"/>
<path class="st0" d="M116.4,17H83.9c-2.9,0-5.2-2.3-5.2-5.2s2.3-5.2,5.2-5.2h32.5c2.9,0,5.2,2.3,5.2,5.2S119.3,17,116.4,17L116.4,17
	z"/>
<path class="st0" d="M150.8,74.9H51.5c-2.9,0-5.2-2.3-5.2-5.2c0-2.9,2.3-5.2,5.2-5.2h99.3c2.9,0,5.2,2.3,5.2,5.2
	C155.9,72.5,153.6,74.9,150.8,74.9L150.8,74.9z"/>
<path class="st0" d="M150.8,108.9H51.5c-2.9,0-5.2-2.3-5.2-5.2c0-2.9,2.3-5.2,5.2-5.2h99.3c2.9,0,5.2,2.3,5.2,5.2
	C155.9,106.6,153.6,108.9,150.8,108.9L150.8,108.9z"/>
<path class="st0" d="M150.8,142.9H51.5c-2.9,0-5.2-2.3-5.2-5.2s2.3-5.2,5.2-5.2h99.3c2.9,0,5.2,2.3,5.2,5.2
	C155.9,140.6,153.6,142.9,150.8,142.9L150.8,142.9z"/>
<path class="st0" d="M150.8,144H51.5c-3.5,0-6.3-2.8-6.3-6.3s2.8-6.3,6.3-6.3h99.3c3.5,0,6.3,2.8,6.3,6.3S154.2,144,150.8,144z"/>
<path class="st0" d="M150.8,110H51.5c-3.5,0-6.3-2.8-6.3-6.3s2.8-6.3,6.3-6.3h99.3c3.5,0,6.3,2.8,6.3,6.3S154.2,110,150.8,110z"/>
<path class="st0" d="M150.8,76H51.5c-3.5,0-6.3-2.8-6.3-6.3s2.8-6.3,6.3-6.3h99.3c3.5,0,6.3,2.8,6.3,6.3S154.2,76,150.8,76z"/>
<path class="st0" d="M116.4,18.2H83.9c-3.5,0-6.3-2.8-6.3-6.3s2.8-6.3,6.3-6.3h32.5c3.5,0,6.3,2.8,6.3,6.3S119.9,18.2,116.4,18.2z"
	/>
</svg>
