<?xml version="1.0" encoding="utf-8"?>
<!-- Generator: Adobe Illustrator 23.0.0, SVG Export Plug-In . SVG Version: 6.00 Build 0)  -->
<svg version="1.1" id="图层_1" xmlns="http://www.w3.org/2000/svg" xmlns:xlink="http://www.w3.org/1999/xlink" x="0px" y="0px"
	 viewBox="0 0 200 200" style="enable-background:new 0 0 200 200;" xml:space="preserve">
<style type="text/css">
	.st0{fill:#C30D23;}
</style>
<g>
	<g>
		<path class="st0" d="M69.9,106.1L33.6,92.2c-3-1.1-4.6-4.7-3.5-7.9c1.1-3.2,4.5-4.9,7.5-3.6L74,94.5c3,1.1,4.6,4.7,3.5,7.9
			S73,107.2,69.9,106.1L69.9,106.1z"/>
		<path class="st0" d="M190.1,31.8l-86-29.3c-1.1-0.5-2.4-0.6-3.6-0.3c-0.2,0.1-0.5,0.2-0.7,0.2L10.4,34.6c-2.5,0.9-4,3.4-3.9,6
			v110.3c0,2.3,1.2,4.6,3.4,5.5l84.8,41.4c0.9,0.5,1.8,0.6,2.8,0.5c0.7,0,1.4-0.2,2.1-0.5l90.3-38.2c2.5-0.7,4.4-3.1,4.4-5.9V37.8
			C194.3,35.2,192.7,32.6,190.1,31.8L190.1,31.8z M129.2,55.7L96.9,69.4L25.4,42.2l33.1-11.9l18.1-6.5l25.3-9.1L171,38.1l-25.1,10.6
			 M18.1,52.5l73.3,27.9v102.4l-73.3-35.7V52.5z M182.4,46.5v103.2l-79.3,33.5V80L182.4,46.5z"/>
	</g>
</g>
</svg>
