<?xml version="1.0" encoding="utf-8"?>
<!-- Generator: Adobe Illustrator 23.0.0, SVG Export Plug-In . SVG Version: 6.00 Build 0)  -->
<svg version="1.1" id="图层_1" xmlns="http://www.w3.org/2000/svg" xmlns:xlink="http://www.w3.org/1999/xlink" x="0px" y="0px"
	 viewBox="0 0 200 200" style="enable-background:new 0 0 200 200;" xml:space="preserve">
<style type="text/css">
	.st0{fill:#C30D23;}
</style>
<g>
	<path class="st0" d="M146.8,199.3H51.7c-5.1,0-9.1-5.4-9.1-12.2v-6.4h7.6v6.4c0,2.8,1.2,4.5,1.6,4.6l95,0c0.4-0.2,1.5-1.8,1.5-4.6
		v-6.4h7.6v6.4C155.9,194,151.9,199.3,146.8,199.3z"/>
	<path class="st0" d="M175.6,66.7H24.3c-2.5,0-4.6-2-4.6-4.6s2-4.6,4.6-4.6h151.3c2.5,0,4.6,2,4.6,4.6S178.1,66.7,175.6,66.7z"/>
	<path class="st0" d="M161.5,137H38.6c-2.7,0-4.9-2.2-4.9-4.9s2.2-4.9,4.9-4.9h122.9c2.7,0,4.9,2.2,4.9,4.9S164.2,137,161.5,137z"/>
	<path class="st0" d="M161.5,156.6H38.6c-2.7,0-4.9-2.2-4.9-4.9s2.2-4.9,4.9-4.9h122.9c2.7,0,4.9,2.2,4.9,4.9
		S164.2,156.6,161.5,156.6z"/>
	<path class="st0" d="M110.6,41.5H87.8c-2,0-3.5-1.6-3.5-3.5s1.6-3.5,3.5-3.5h22.9c2,0,3.5,1.6,3.5,3.5S112.6,41.5,110.6,41.5z"/>
	<path class="st0" d="M107.9,88H92.3c-6.7,0-12.2-5.2-12.2-11.6V58c0-6.4,5.5-11.6,12.2-11.6H108c6.7,0,12.2,5.2,12.2,11.6v18.4
		C120,82.8,114.5,88,107.9,88z M92.3,53.3c-2.9,0-5.3,2.2-5.3,4.7v18.4c0,2.6,2.4,4.7,5.3,4.7h15.6c2.9,0,5.3-2.1,5.4-4.8l0-18.3
		c0-2.6-2.4-4.7-5.3-4.7H92.3z"/>
	<path class="st0" d="M172.3,186.4H27.6c-11.3,0-20.5-9.2-20.5-20.5V21.3C7.1,10,16.3,0.8,27.6,0.8h144.7c11.3,0,20.5,9.2,20.5,20.5
		V166C192.9,177.3,183.6,186.4,172.3,186.4z M27.6,12.2c-5,0-9.1,4.1-9.1,9.1v144.6c0,5,4.1,9.1,9.1,9.1h144.6c5.1,0,9.2-4.1,9.2-9
		V21.3c0-5-4.1-9.1-9.1-9.1H27.6z"/>
	<path class="st0" d="M100,101.2C100,101.2,100,101.2,100,101.2c-0.8,0-1.5-0.5-1.8-1.1l0-0.1l-4.3-10.9c-0.3-0.6-0.3-1.4,0-2
		c0.4-0.7,1.1-1.1,1.8-1.1h8.7c0.8,0,1.5,0.4,1.8,1.1c0.3,0.6,0.4,1.4,0,2l-4.4,11.1C101.4,100.8,100.8,101.2,100,101.2z
		 M100.8,99.6L100.8,99.6L100.8,99.6z M96.2,88.4l3.9,9.9l3.9-9.9H96.2z"/>
</g>
</svg>
