<?xml version="1.0" encoding="utf-8"?>
<!-- Generator: Adobe Illustrator 23.0.0, SVG Export Plug-In . SVG Version: 6.00 Build 0)  -->
<svg version="1.1" id="图层_1" xmlns="http://www.w3.org/2000/svg" xmlns:xlink="http://www.w3.org/1999/xlink" x="0px" y="0px"
	 viewBox="0 0 200 200" style="enable-background:new 0 0 200 200;" xml:space="preserve">
<style type="text/css">
	.st0{fill:#C30D23;}
</style>
<g>
	<path class="st0" d="M160.6,198.3H42.5c-6.3,0-11.3-5.4-11.3-12c0-6.6,5.1-12,11.3-12h47.7v-18.2H28.6c-8.9,0-16.1-7.7-16.1-17.1
		V19.6c0-9.4,7.2-17.1,16.1-17.1h145.9c8.9,0,16.1,7.7,16.1,17.1v119.5c0,9.4-7.2,17.1-16.1,17.1h-61.6v18.2h47.7
		c6.3,0,11.3,5.4,11.3,12C171.9,193,166.8,198.3,160.6,198.3z M42.5,185.3c-0.1,0-0.5,0.4-0.5,1.1c0,0.7,0.4,1.1,0.5,1.1l118,0
		c0.1,0,0.5-0.4,0.5-1.1c0-0.7-0.4-1.1-0.5-1.1l-58.4,0l0,0l-6.4,0H42.5z M28.6,13.4c-2.8,0-5.2,2.8-5.2,6.2v119.5
		c0,3.4,2.3,6.2,5.2,6.2h72.5v33.3c0,0.1,0,0.2,0,0.4l0.4,2.3l0.5-2.3c0-0.1,0-0.2,0-0.3v-33.3h72.5c2.8,0,5.2-2.8,5.2-6.2V19.6
		c0-3.4-2.3-6.2-5.2-6.2H28.6z"/>
	<path class="st0" d="M97.5,87.4L97.5,87.4c11.5,6.8,25.7,6.7,37.2-0.1l18.8-11.2l-6.2-10.4l-15.8,9.3c-9.6,5.7-21.5,5.7-31,0.1
		l-0.1-0.1c-11.7-6.9-26.4-6.7-37.9,0.5l-15.5,9.6l6.5,10.3l12.3-7.7C75.5,81.8,87.7,81.7,97.5,87.4z"/>
	<rect x="93.6" y="145.3" class="st0" width="15.8" height="38.7"/>
</g>
</svg>
