<?xml version="1.0" encoding="utf-8"?>
<!-- Generator: Adobe Illustrator 23.0.0, SVG Export Plug-In . SVG Version: 6.00 Build 0)  -->
<svg version="1.1" id="图层_1" xmlns="http://www.w3.org/2000/svg" xmlns:xlink="http://www.w3.org/1999/xlink" x="0px" y="0px"
	 viewBox="0 0 200 200" style="enable-background:new 0 0 200 200;" xml:space="preserve">
<style type="text/css">
	.st0{fill:#C30D23;}
</style>
<g>
	<path class="st0" d="M41.1,198.5h123c11.4,0,20.5-9.1,20.5-20.3c0-36.5-29.8-65.9-66.5-65.9H87.3c-36.7,0-66.5,29.5-66.5,65.9
		C20.6,189.4,29.9,198.5,41.1,198.5L41.1,198.5z M87.3,122.3H118c31.1,0,56.3,25,56.3,55.9c0,5.5-4.5,10.1-10.2,10.1h-123
		c-5.7,0-10.2-4.5-10.2-10.1C30.9,147.4,56.1,122.3,87.3,122.3L87.3,122.3z M102.5,104.9c28.2,0,51.3-22.7,51.3-50.8
		c0-28-22.9-50.8-51.3-50.8S51.4,26,51.4,54.1C51.4,82.2,74.4,104.9,102.5,104.9L102.5,104.9z M102.5,13.5
		c22.7,0,41.1,18.2,41.1,40.7s-18.3,40.7-41.1,40.7S61.5,76.6,61.5,54.1C61.6,31.7,80,13.5,102.5,13.5L102.5,13.5z"/>
	<path class="st0" d="M164.1,199.3h-123c-5.7,0-11-2.2-15.1-6.3c-4-4-6.1-9.2-6.1-14.8c0-36.8,30.2-66.7,67.3-66.7H118
		c37.1,0,67.3,29.9,67.3,66.7C185.3,189.8,175.8,199.3,164.1,199.3z M87.3,113c-36.3,0-65.8,29.2-65.8,65.2c0,5.2,2,10,5.6,13.7
		c3.7,3.8,8.7,5.8,14,5.8h123c10.9,0,19.8-8.8,19.8-19.6c0-35.9-29.5-65.2-65.8-65.2H87.3z M164.1,189.1h-123
		c-6.1,0-10.9-4.8-10.9-10.9c0-31.2,25.6-56.6,57.1-56.6H118c31.5,0,57.1,25.4,57.1,56.6C175.1,184.2,170.2,189.1,164.1,189.1z
		 M87.3,123.1c-30.7,0-55.6,24.7-55.6,55.2c0,5.3,4.1,9.4,9.4,9.4h123c5.2,0,9.4-4.2,9.4-9.4c0-30.4-24.9-55.2-55.6-55.2H87.3z
		 M102.5,105.6c-14,0-27-5.4-36.9-15.3c-9.7-9.7-15-22.6-15-36.3c0-28.4,23.3-51.6,51.9-51.6c28.7,0,52,23.1,52,51.6
		S131.2,105.6,102.5,105.6z M102.5,4C74.8,4,52.2,26.5,52.2,54.1c0,13.3,5.1,25.8,14.5,35.2c9.5,9.6,22.3,14.8,35.8,14.8
		c27.8,0,50.5-22.5,50.5-50.1S130.4,4,102.5,4z M102.5,95.7c-23.1,0-41.8-18.7-41.8-41.6c0.2-22.8,18.9-41.3,41.8-41.3
		c23.1,0,41.8,18.6,41.8,41.4C144.4,77.1,125.6,95.7,102.5,95.7z M102.5,14.3c-22.1,0-40.2,17.9-40.3,39.8
		c0,22.1,18.1,40.1,40.3,40.1s40.3-17.9,40.3-39.9C142.9,32.2,124.8,14.3,102.5,14.3z"/>
</g>
</svg>
